<?xml version="1.0" standalone="no"?>
<svg viewBox="0 0 200 200" xmlns="http://www.w3.org/2000/svg">
  <path fill="#726adc" d="M5.5,-13C7.4,-8.4,9.3,-7.4,19,-5.9C28.7,-4.3,46.2,-2.2,58.5,7.1C70.8,16.4,77.9,32.7,68.2,34.3C58.5,35.8,31.9,22.5,17.7,17.9C3.5,13.3,1.8,17.4,-7.2,29.9C-16.2,42.4,-32.4,63.3,-44,66.4C-55.7,69.6,-62.8,54.9,-59.1,40.9C-55.4,26.9,-41.1,13.4,-31.1,5.7C-21.2,-2,-15.7,-3.9,-13.6,-8C-11.5,-12.2,-12.9,-18.5,-11.2,-23.2C-9.6,-27.9,-4.8,-31,-1.5,-28.4C1.8,-25.9,3.6,-17.6,5.5,-13Z" transform="translate(100 100)" />
</svg>
